<svg width="16" height="16" viewBox="0 0 16 16" fill="none" xmlns="http://www.w3.org/2000/svg">
<path d="M8 16C12.4183 16 16 12.4183 16 8C16 3.58172 12.4183 0 8 0C3.58172 0 0 3.58172 0 8C0 12.4183 3.58172 16 8 16Z" fill="#263238"/>
<path d="M2.14286 9.41943H2.45086V7.15543L3.47086 8.65143H3.48686L4.50686 7.15143V9.41943H4.82286V6.61943H4.50286L3.48286 8.14743L2.46286 6.61943H2.14286V9.41943Z" fill="#90A4AE"/>
<path d="M6.73551 9.46343C7.43551 9.46343 7.90351 9.03943 7.90351 8.22343V6.61943H7.58751V8.24743C7.58751 8.85943 7.25951 9.17143 6.74351 9.17143C6.21151 9.17143 5.88751 8.83143 5.88751 8.22743V6.61943H5.57151V8.24743C5.57151 9.03943 6.04351 9.46343 6.73551 9.46343Z" fill="#90A4AE"/>
<path d="M8.52267 9.41943H10.7667V9.13543H8.95067L10.7667 6.83143V6.61943H8.58267V6.90343H10.3347L8.52267 9.20743V9.41943Z" fill="#90A4AE"/>
<path d="M12.5679 9.46743C13.4199 9.46743 13.9999 8.79143 13.9999 8.01943V8.01143C13.9999 7.23943 13.4279 6.57143 12.5759 6.57143C11.7239 6.57143 11.1439 7.24743 11.1439 8.01943V8.02743C11.1439 8.79943 11.7159 9.46743 12.5679 9.46743ZM12.5759 9.17543C11.9359 9.17543 11.4719 8.65543 11.4719 8.01943V8.01143C11.4719 7.37543 11.9279 6.86343 12.5679 6.86343C13.2079 6.86343 13.6719 7.38343 13.6719 8.01943V8.02743C13.6719 8.66343 13.2159 9.17543 12.5759 9.17543Z" fill="#90A4AE"/>
</svg>
